<svg xmlns="http://www.w3.org/2000/svg" width="248.556" height="70.043" viewBox="0 0 248.556 70.043"><g id="Group_12622" data-name="Group 12622" transform="translate(-83.944 -139.829)"><g id="Group_11311" data-name="Group 11311"><path id="Path_20501" data-name="Path 20501" d="M38.153,33.192l.007,0c5.871-5.3,5.871-8.411,5.871-8.411l-14.777.665s-3.494,6.107-10.715,6.279a35.628,35.628,0,0,1-7.021-.563,28.4,28.4,0,0,0,26.635,2.035" transform="translate(98.043 170.157)" fill="#fff" opacity="0.7"></path><path id="Path_20511" data-name="Path 20511" d="M26.95,39.016c14.089-.276,19.73-6.1,20.254-6.672a18.861,18.861,0,0,0,2.776-9.412,15.284,15.284,0,0,0-2.729-9.494,28.145,28.145,0,0,0-2.873-2.3A28.5,28.5,0,0,0,22.855,6.574,20.834,20.834,0,0,1,25,15.73c0,9.466-6.41,17.6-15.606,21.246a.744.744,0,0,1,.064.053c.451.309,3.843,2.251,17.494,1.986" transform="translate(95.439 147.27)" fill="#fff" opacity="0.7"></path></g><g id="Group_11312" data-name="Group 11312"><path id="Path_20515" data-name="Path 20515" d="M34.35,9.986a28.235,28.235,0,0,1,24.4,6.863c-.093-.133-.191-.265-.287-.4-.409-.538-.821-1.072-1.268-1.59l-.049-.056c-.547-.629-1.128-1.241-1.73-1.835a33.1,33.1,0,0,0-4.4-3.647C36.334-.845,16.115,2.139,5.854,16s-6.681,33.334,8,43.5a33.527,33.527,0,0,0,38.4-.009l-.007,0a28.405,28.405,0,0,1-26.637-2.035c-.347-.22-.712-.4-1.054-.632C12.192,48.255,9.174,31.846,17.821,20.172A26.517,26.517,0,0,1,34.35,9.986" transform="translate(83.944 143.855)" fill="#fff"></path><path id="Path_20525" data-name="Path 20525" d="M24.21,28.754c.418.033.845.042,1.27.058.489.013.976.029,1.488.016.111,0,.222-.011.336-.013.743-.029,1.5-.08,2.291-.171l.051-.007c.705-.082,1.437-.211,2.173-.349A24.739,24.739,0,0,0,41.3,24.2c.5-.365.985-.754,1.455-1.152.236-.2.456-.407.672-.612.162-.149.322-.3.478-.458.38-.374.723-.736,1.034-1.085.2-.227.4-.454.594-.689.14-.171.28-.34.4-.5a20.7,20.7,0,0,0,1.232-1.817c-.525.576-6.167,6.4-20.254,6.674-13.651.265-17.043-1.679-17.494-1.988a24.94,24.94,0,0,0,14.138,6.118c.218.022.429.047.652.062" transform="translate(95.475 161.724)" fill="#fff"></path></g><g id="Group_11309" data-name="Group 11309"><path id="Path_20526" data-name="Path 20526" d="M49.184,15.923a4.384,4.384,0,0,0-1.259-3.276,4.487,4.487,0,0,0-3.376-1.359,5.627,5.627,0,0,0-2.217.4,5.518,5.518,0,0,0-1.639,1.032,4.529,4.529,0,0,0-1.056,1.461,4.717,4.717,0,0,0-.427,1.737Zm6.4,10.784A12.1,12.1,0,0,1,51,30.286a13.76,13.76,0,0,1-5.745,1.259,15.44,15.44,0,0,1-5.318-.907,12.768,12.768,0,0,1-4.332-2.6,12.161,12.161,0,0,1-2.9-4.057,12.831,12.831,0,0,1-1.059-5.291A12.838,12.838,0,0,1,32.706,13.4a12.174,12.174,0,0,1,2.9-4.054,12.773,12.773,0,0,1,4.332-2.6,15.492,15.492,0,0,1,5.318-.905,12.139,12.139,0,0,1,4.762.905,9.948,9.948,0,0,1,3.63,2.6A11.914,11.914,0,0,1,55.938,13.4a16.454,16.454,0,0,1,.805,5.291v2.369H39.209a5.975,5.975,0,0,0,1.962,3.452A5.57,5.57,0,0,0,44.9,25.8a5.661,5.661,0,0,0,3.149-.832,8.43,8.43,0,0,0,2.244-2.142" transform="translate(122.682 146.985)" fill="#fff"></path><path id="Path_20527" data-name="Path 20527" d="M61.08,14.361a4.254,4.254,0,0,0-1.561-1.337,4.622,4.622,0,0,0-2.168-.527,5.782,5.782,0,0,0-4.459,1.713,6.328,6.328,0,0,0-1.586,4.484,6.33,6.33,0,0,0,1.586,4.486,5.782,5.782,0,0,0,4.459,1.713,4.088,4.088,0,0,0,2.168-.554,6.551,6.551,0,0,0,1.561-1.31l4.989,5.242a9.662,9.662,0,0,1-4.157,2.544,15.7,15.7,0,0,1-4.562.729,15.384,15.384,0,0,1-5.315-.907,12.757,12.757,0,0,1-4.335-2.6,12.164,12.164,0,0,1-2.9-4.057,12.831,12.831,0,0,1-1.059-5.291A12.828,12.828,0,0,1,44.8,13.4a12.209,12.209,0,0,1,2.9-4.057,12.792,12.792,0,0,1,4.335-2.6,15.436,15.436,0,0,1,5.315-.907,15.7,15.7,0,0,1,4.562.729,9.667,9.667,0,0,1,4.157,2.547" transform="translate(137.492 146.984)" fill="#fff"></path><path id="Path_20528" data-name="Path 20528" d="M54.453,1.307,62.01,0V23.281l8.367-9.675h9.272L69.923,24.642,79.9,38.1H70.377L62.112,25.7h-.1V38.1H54.453" transform="translate(150.598 139.829)" fill="#fff"></path><path id="Path_20529" data-name="Path 20529" d="M82.988,15.923a4.377,4.377,0,0,0-1.261-3.276,4.48,4.48,0,0,0-3.376-1.359,5.627,5.627,0,0,0-2.217.4A5.507,5.507,0,0,0,74.5,12.725a4.5,4.5,0,0,0-1.059,1.461,4.761,4.761,0,0,0-.427,1.737Zm6.4,10.784A12.09,12.09,0,0,1,84.8,30.286a13.743,13.743,0,0,1-5.743,1.259,15.431,15.431,0,0,1-5.318-.907,12.768,12.768,0,0,1-4.332-2.6,12.161,12.161,0,0,1-2.9-4.057,12.831,12.831,0,0,1-1.059-5.291A12.838,12.838,0,0,1,66.51,13.4a12.174,12.174,0,0,1,2.9-4.054,12.773,12.773,0,0,1,4.332-2.6,15.483,15.483,0,0,1,5.318-.905,12.146,12.146,0,0,1,4.762.905,9.922,9.922,0,0,1,3.627,2.6A11.878,11.878,0,0,1,89.74,13.4a16.393,16.393,0,0,1,.805,5.291v2.369H73.011a5.978,5.978,0,0,0,1.964,3.452A5.562,5.562,0,0,0,78.7,25.8a5.666,5.666,0,0,0,3.149-.832A8.5,8.5,0,0,0,84.1,22.827" transform="translate(164.06 146.985)" fill="#fff"></path><path id="Path_20530" data-name="Path 20530" d="M77.655,6.451h7.557v3.93h.1a9.324,9.324,0,0,1,2.871-3.4,7.247,7.247,0,0,1,4.186-1.134q.651,0,1.308.051a6.572,6.572,0,0,1,1.21.2V13a11.324,11.324,0,0,0-1.588-.38,10.507,10.507,0,0,0-1.637-.125,8,8,0,0,0-3.427.6,4.556,4.556,0,0,0-1.942,1.688,6.392,6.392,0,0,0-.879,2.6,25.022,25.022,0,0,0-.2,3.325V30.94H77.655" transform="translate(178.998 146.985)" fill="#fff"></path><path id="Path_20531" data-name="Path 20531" d="M105.042,25.848a6.346,6.346,0,0,0-1.588-4.484,6.662,6.662,0,0,0-8.918,0,6.336,6.336,0,0,0-1.588,4.484,6.331,6.331,0,0,0,1.588,4.486,6.662,6.662,0,0,0,8.918,0,6.341,6.341,0,0,0,1.588-4.486M112,38.094h-6.955V34.869h-.1a8.329,8.329,0,0,1-1.185,1.334,9.071,9.071,0,0,1-1.713,1.237,10.449,10.449,0,0,1-2.168.905,8.489,8.489,0,0,1-2.442.354,12.647,12.647,0,0,1-4.94-.932,11,11,0,0,1-3.8-2.62,11.666,11.666,0,0,1-2.444-4.006,14.575,14.575,0,0,1-.856-5.091,15.44,15.44,0,0,1,.781-4.913,13.5,13.5,0,0,1,2.215-4.157,10.831,10.831,0,0,1,3.5-2.9A9.932,9.932,0,0,1,96.575,13a12.943,12.943,0,0,1,4.41.732,7.045,7.045,0,0,1,3.349,2.493h.1V1.306L112,0" transform="translate(188.466 139.83)" fill="#fff"></path></g><g id="Group_11310" data-name="Group 11310" opacity="0.7"><path id="Path_20532" data-name="Path 20532" d="M50.04,26.493a7.118,7.118,0,0,0-2.393-2.215,6.762,6.762,0,0,0-3.5-.907,8.706,8.706,0,0,0-3.7.656,8.147,8.147,0,0,0-2.8,1.962,8.528,8.528,0,0,0-1.764,3,11.993,11.993,0,0,0,0,7.508,8.479,8.479,0,0,0,1.764,3,8.158,8.158,0,0,0,2.8,1.966,8.74,8.74,0,0,0,3.7.654,6.762,6.762,0,0,0,3.5-.907A7.1,7.1,0,0,0,50.04,38.99l2.72,2.066A11.187,11.187,0,0,1,48.781,44.1a11.934,11.934,0,0,1-4.637,1.034,13.236,13.236,0,0,1-5.191-.883A11.533,11.533,0,0,1,35,41.663a11.14,11.14,0,0,1-2.5-3.957,14.811,14.811,0,0,1,0-9.926A11.11,11.11,0,0,1,35,23.822a11.5,11.5,0,0,1,3.954-2.593,13.157,13.157,0,0,1,5.191-.883,11.974,11.974,0,0,1,4.637,1.034,11.162,11.162,0,0,1,3.979,3.049" transform="translate(122.682 164.73)" fill="#fff"></path><path id="Path_20533" data-name="Path 20533" d="M63.075,32.742a10.572,10.572,0,0,0-.629-3.679,8.8,8.8,0,0,0-1.79-2.974,8.373,8.373,0,0,0-2.8-1.991,9.769,9.769,0,0,0-7.408,0,8.112,8.112,0,0,0-2.769,1.991,9.075,9.075,0,0,0-1.766,2.974,11.1,11.1,0,0,0,0,7.357,9.065,9.065,0,0,0,1.766,2.971,8.083,8.083,0,0,0,2.769,1.991,9.742,9.742,0,0,0,7.408,0,8.342,8.342,0,0,0,2.8-1.991,8.788,8.788,0,0,0,1.79-2.971,10.572,10.572,0,0,0,.629-3.679m3.63,0a12.834,12.834,0,0,1-.934,4.937,11.7,11.7,0,0,1-6.55,6.525,14.093,14.093,0,0,1-10.079,0,11.7,11.7,0,0,1-6.55-6.525,13.582,13.582,0,0,1,0-9.877,11.68,11.68,0,0,1,6.55-6.525,14.093,14.093,0,0,1,10.079,0,11.68,11.68,0,0,1,6.55,6.525,12.853,12.853,0,0,1,.934,4.94" transform="translate(134.941 164.733)" fill="#fff"></path><path id="Path_20534" data-name="Path 20534" d="M57.636,20.948c.067.638.109,1.27.125,1.89s.027,1.252.027,1.89h.1A7.707,7.707,0,0,1,59.3,22.965a9.263,9.263,0,0,1,1.915-1.388,10.492,10.492,0,0,1,2.242-.905,8.675,8.675,0,0,1,2.344-.327q4.534,0,6.7,2.391t2.168,6.83V44.532H71.343V31.481a11.083,11.083,0,0,0-1.361-6.023q-1.361-2.088-5.04-2.091a12.772,12.772,0,0,0-1.41.2,6.134,6.134,0,0,0-2.444,1.11A7.988,7.988,0,0,0,58.795,27.4a10.463,10.463,0,0,0-1.007,5.037V44.532H54.46V26.139q0-.957-.076-2.418t-.176-2.773" transform="translate(150.299 164.733)" fill="#fff"></path><path id="Path_20535" data-name="Path 20535" d="M68.5,20.948c.067.638.109,1.27.127,1.89s.027,1.252.027,1.89h.1a7.829,7.829,0,0,1,1.412-1.764,9.324,9.324,0,0,1,1.915-1.388,10.492,10.492,0,0,1,2.242-.905,8.687,8.687,0,0,1,2.344-.327q4.534,0,6.7,2.391t2.166,6.83V44.532H82.21V31.481a11.063,11.063,0,0,0-1.361-6.023q-1.361-2.088-5.04-2.091a12.846,12.846,0,0,0-1.41.2,6.127,6.127,0,0,0-2.442,1.11A7.964,7.964,0,0,0,69.664,27.4a10.437,10.437,0,0,0-1.008,5.037V44.532H65.329V26.139c0-.638-.027-1.443-.076-2.418s-.109-1.9-.176-2.773" transform="translate(163.603 164.733)" fill="#fff"></path><path id="Path_20536" data-name="Path 20536" d="M95.126,30.927a7.554,7.554,0,0,0-2.015-5.469,7.478,7.478,0,0,0-5.645-2.091A8.066,8.066,0,0,0,84.343,24,8.812,8.812,0,0,0,81.7,25.685a8.49,8.49,0,0,0-1.815,2.42,6.266,6.266,0,0,0-.681,2.822ZM79.1,33.647a10.1,10.1,0,0,0,.856,3.325,8.679,8.679,0,0,0,4.535,4.486,8.124,8.124,0,0,0,3.276.656,8.4,8.4,0,0,0,4.61-1.234,9.229,9.229,0,0,0,2.949-2.849L97.9,40.148a12.767,12.767,0,0,1-4.659,3.83,13.065,13.065,0,0,1-5.469,1.159,12.556,12.556,0,0,1-4.862-.932,11.416,11.416,0,0,1-3.857-2.6,12.294,12.294,0,0,1-2.544-3.93,12.87,12.87,0,0,1-.932-4.94,13.174,13.174,0,0,1,.907-4.937A11.918,11.918,0,0,1,79,23.872a11.588,11.588,0,0,1,3.779-2.6,11.744,11.744,0,0,1,4.686-.932,11.506,11.506,0,0,1,4.788.959,10.539,10.539,0,0,1,3.55,2.544A10.871,10.871,0,0,1,98,27.575a13.647,13.647,0,0,1,.754,4.559v1.512" transform="translate(176.451 164.733)" fill="#fff"></path><path id="Path_20537" data-name="Path 20537" d="M105.245,26.493a7.118,7.118,0,0,0-2.393-2.215,6.76,6.76,0,0,0-3.5-.907,8.716,8.716,0,0,0-3.705.656,8.117,8.117,0,0,0-2.8,1.962,8.532,8.532,0,0,0-1.766,3,11.993,11.993,0,0,0,0,7.508,8.483,8.483,0,0,0,1.766,3,8.128,8.128,0,0,0,2.8,1.966,8.75,8.75,0,0,0,3.705.654,6.76,6.76,0,0,0,3.5-.907,7.1,7.1,0,0,0,2.393-2.217l2.722,2.066a11.213,11.213,0,0,1-3.981,3.049,11.932,11.932,0,0,1-4.635,1.034,13.222,13.222,0,0,1-5.191-.883A11.48,11.48,0,0,1,90.2,41.663a11.1,11.1,0,0,1-2.493-3.957,14.811,14.811,0,0,1,0-9.926A11.075,11.075,0,0,1,90.2,23.822a11.448,11.448,0,0,1,3.957-2.593,13.142,13.142,0,0,1,5.191-.883,11.972,11.972,0,0,1,4.635,1.034,11.188,11.188,0,0,1,3.981,3.049" transform="translate(190.258 164.73)" fill="#fff"></path><path id="Path_20538" data-name="Path 20538" d="M111.052,27.3h-6.8v13.9a7.52,7.52,0,0,0,.254,2.144,2.969,2.969,0,0,0,.705,1.283,2.41,2.41,0,0,0,1.085.632,5.086,5.086,0,0,0,1.383.176,6.532,6.532,0,0,0,1.764-.251,8.18,8.18,0,0,0,1.664-.656l.151,3.076a10.713,10.713,0,0,1-4.486.854,8.437,8.437,0,0,1-1.991-.249,4.7,4.7,0,0,1-1.888-.959,5.257,5.257,0,0,1-1.412-1.917,7.681,7.681,0,0,1-.554-3.174V27.3H96.978l.265-3.025h3.681v-6.65h3.325v6.65h6.8" transform="translate(202.65 161.405)" fill="#fff"></path><path id="Path_20539" data-name="Path 20539" d="M118.018,26.542A6.155,6.155,0,0,0,116,24.225a5.338,5.338,0,0,0-3.071-.856,7.869,7.869,0,0,0-1.741.2,5.448,5.448,0,0,0-1.586.629,3.558,3.558,0,0,0-1.134,1.085,2.889,2.889,0,0,0-.427,1.612,2.669,2.669,0,0,0,1.159,2.418,11.309,11.309,0,0,0,3.476,1.31l3.378.807a8.031,8.031,0,0,1,4.1,2.242,5.805,5.805,0,0,1,1.641,4.206,6.449,6.449,0,0,1-2.849,5.571A8.8,8.8,0,0,1,116,44.733a14.361,14.361,0,0,1-3.374.4,12.413,12.413,0,0,1-5.066-1.034,9.361,9.361,0,0,1-4.006-3.552l2.873-1.964a7.934,7.934,0,0,0,2.544,2.569,6.77,6.77,0,0,0,3.654.956,9.016,9.016,0,0,0,2.015-.227,5.829,5.829,0,0,0,1.79-.707,3.8,3.8,0,0,0,1.257-1.232,3.22,3.22,0,0,0,.48-1.764,2.735,2.735,0,0,0-1.312-2.544,11.468,11.468,0,0,0-3.174-1.234l-3.223-.756c-.4-.1-.95-.269-1.639-.5a7.751,7.751,0,0,1-2.017-1.059,6.316,6.316,0,0,1-1.686-1.839,5.181,5.181,0,0,1-.705-2.8,6.607,6.607,0,0,1,.729-3.174,6.258,6.258,0,0,1,1.964-2.217,9.072,9.072,0,0,1,2.8-1.286,12.178,12.178,0,0,1,3.225-.429,10.987,10.987,0,0,1,4.586.959,6.755,6.755,0,0,1,3.274,3.274" transform="translate(210.701 164.732)" fill="#fff"></path></g></g></svg>